<svg width="41" height="40" viewBox="0 0 41 40" fill="none" xmlns="http://www.w3.org/2000/svg">
<circle cx="20.0503" cy="20" r="19.25" stroke="#222211" stroke-width="1.5"/>
<path d="M26.8414 12.152C26.5565 12.152 26.2781 12.2365 26.0413 12.3947C25.8045 12.5529 25.62 12.7778 25.511 13.0409C25.402 13.3041 25.3735 13.5936 25.429 13.8729C25.4846 14.1523 25.6217 14.4088 25.8231 14.6102C26.0245 14.8116 26.2811 14.9488 26.5604 15.0043C26.8398 15.0599 27.1293 15.0314 27.3924 14.9224C27.6555 14.8134 27.8804 14.6288 28.0387 14.392C28.1969 14.1552 28.2814 13.8768 28.2814 13.592C28.2814 13.2101 28.1296 12.8438 27.8596 12.5738C27.5895 12.3037 27.2233 12.152 26.8414 12.152ZM32.3614 15.056C32.338 14.0604 32.1515 13.0753 31.8093 12.14C31.5042 11.3398 31.0293 10.6151 30.4174 10.016C29.8231 9.40091 29.0968 8.92901 28.2933 8.636C27.3605 8.28339 26.3744 8.09265 25.3774 8.072C24.1054 8 23.6974 8 20.4334 8C17.1693 8 16.7614 8 15.4894 8.072C14.4923 8.09265 13.5062 8.28339 12.5733 8.636C11.7714 8.93198 11.0457 9.40347 10.4493 10.016C9.83426 10.6102 9.36236 11.3365 9.06935 12.14C8.71674 13.0728 8.526 14.059 8.50535 15.056C8.43335 16.328 8.43335 16.736 8.43335 20C8.43335 23.264 8.43335 23.672 8.50535 24.944C8.526 25.941 8.71674 26.9272 9.06935 27.86C9.36236 28.6635 9.83426 29.3898 10.4493 29.984C11.0457 30.5965 11.7714 31.068 12.5733 31.364C13.5062 31.7166 14.4923 31.9073 15.4894 31.928C16.7614 32 17.1693 32 20.4334 32C23.6974 32 24.1054 32 25.3774 31.928C26.3744 31.9073 27.3605 31.7166 28.2933 31.364C29.0968 31.071 29.8231 30.5991 30.4174 29.984C31.032 29.3871 31.5074 28.6618 31.8093 27.86C32.1515 26.9247 32.338 25.9396 32.3614 24.944C32.3614 23.672 32.4334 23.264 32.4334 20C32.4334 16.736 32.4334 16.328 32.3614 15.056ZM30.2013 24.8C30.1926 25.5617 30.0547 26.3164 29.7933 27.032C29.6018 27.5542 29.294 28.0261 28.8933 28.412C28.5041 28.8086 28.0332 29.1157 27.5133 29.312C26.7978 29.5733 26.0431 29.7113 25.2814 29.72C24.0814 29.78 23.6374 29.792 20.4814 29.792C17.3253 29.792 16.8813 29.792 15.6813 29.72C14.8904 29.7348 14.1029 29.613 13.3533 29.36C12.8563 29.1537 12.407 28.8473 12.0333 28.46C11.6351 28.0745 11.3312 27.6022 11.1453 27.08C10.8524 26.3542 10.6899 25.5823 10.6653 24.8C10.6653 23.6 10.5933 23.156 10.5933 20C10.5933 16.844 10.5933 16.4 10.6653 15.2C10.6707 14.4213 10.8129 13.6495 11.0853 12.92C11.2966 12.4135 11.6209 11.962 12.0333 11.6C12.3979 11.1874 12.8485 10.8597 13.3533 10.64C14.0848 10.3761 14.8557 10.2381 15.6333 10.232C16.8333 10.232 17.2773 10.16 20.4334 10.16C23.5894 10.16 24.0334 10.16 25.2334 10.232C25.9951 10.2407 26.7498 10.3787 27.4654 10.64C28.0107 10.8424 28.5001 11.1714 28.8933 11.6C29.2866 11.9686 29.5939 12.4193 29.7933 12.92C30.0601 13.6507 30.1981 14.4221 30.2013 15.2C30.2613 16.4 30.2734 16.844 30.2734 20C30.2734 23.156 30.2613 23.6 30.2013 24.8ZM20.4334 13.844C19.2163 13.8464 18.0273 14.2094 17.0165 14.8873C16.0058 15.5652 15.2186 16.5274 14.7545 17.6525C14.2904 18.7776 14.1702 20.015 14.4091 21.2083C14.648 22.4017 15.2352 23.4974 16.0966 24.3572C16.958 25.2169 18.055 25.802 19.2488 26.0386C20.4426 26.2751 21.6797 26.1525 22.8039 25.6862C23.9281 25.22 24.8888 24.4309 25.5647 23.4188C26.2406 22.4068 26.6013 21.217 26.6013 20C26.6029 19.1901 26.4444 18.3879 26.1348 17.6395C25.8253 16.8912 25.3708 16.2114 24.7976 15.6393C24.2244 15.0672 23.5437 14.614 22.7947 14.3059C22.0457 13.9978 21.2432 13.8408 20.4334 13.844ZM20.4334 23.996C19.643 23.996 18.8704 23.7616 18.2133 23.3226C17.5562 22.8835 17.044 22.2594 16.7415 21.5292C16.4391 20.799 16.3599 19.9956 16.5141 19.2204C16.6683 18.4453 17.0489 17.7333 17.6078 17.1744C18.1666 16.6156 18.8786 16.235 19.6538 16.0808C20.4289 15.9266 21.2324 16.0057 21.9626 16.3082C22.6927 16.6106 23.3168 17.1228 23.7559 17.7799C24.195 18.4371 24.4294 19.2097 24.4294 20C24.4294 20.5248 24.326 21.0444 24.1252 21.5292C23.9244 22.014 23.63 22.4545 23.2589 22.8256C22.8879 23.1967 22.4474 23.491 21.9626 23.6918C21.4777 23.8926 20.9581 23.996 20.4334 23.996Z" fill="#222211"/>
</svg>
