<svg width="23" height="23" viewBox="0 0 23 23" fill="none" xmlns="http://www.w3.org/2000/svg">
<path d="M17.7676 19.9C17.6005 16.8639 16.6709 14.65 11.4999 14.65C6.32897 14.65 5.39941 16.8639 5.2323 19.9M6.25 2.40471C7.79441 1.51132 9.58753 1 11.5 1C17.2989 1 22 5.70101 22 11.5C22 17.2989 17.2989 22 11.5 22C5.70101 22 1 17.2989 1 11.5C1 9.58753 1.51132 7.79441 2.40471 6.25M14.65 8.35C14.65 10.0897 13.2397 11.5 11.5 11.5C9.7603 11.5 8.35 10.0897 8.35 8.35C8.35 6.6103 9.7603 5.2 11.5 5.2C13.2397 5.2 14.65 6.6103 14.65 8.35Z" stroke="black" stroke-width="1.9" stroke-linecap="round"/>
</svg>
