<svg width="22" height="22" viewBox="0 0 22 22" fill="none" xmlns="http://www.w3.org/2000/svg">
<path d="M10.8611 14.0464C12.9382 14.0464 14.622 12.3415 14.622 10.2384C14.622 8.13531 12.9382 6.43042 10.8611 6.43042C8.78394 6.43042 7.1001 8.13531 7.1001 10.2384C7.1001 12.3415 8.78394 14.0464 10.8611 14.0464Z" stroke="white" stroke-width="1.75" stroke-linecap="round" stroke-linejoin="round"/>
<path d="M4.82471 17.7943C5.39065 16.6657 6.25421 15.7177 7.31968 15.0556C8.38514 14.3934 9.61089 14.0429 10.8611 14.0429C12.1112 14.0429 13.337 14.3934 14.4024 15.0556C15.4679 15.7177 16.3315 16.6657 16.8974 17.7943" stroke="white" stroke-width="1.75" stroke-linecap="round" stroke-linejoin="round"/>
<path d="M19.7624 9.47689C20.0797 11.386 19.7896 13.3478 18.9339 15.079C18.0782 16.8103 16.7013 18.2214 15.0019 19.1086C13.3025 19.9958 11.3685 20.3132 9.47932 20.015C7.59012 19.7167 5.84341 18.8183 4.49141 17.4494C3.1394 16.0805 2.25206 14.312 1.95752 12.3991C1.66297 10.4863 1.97646 8.52822 2.85272 6.80756C3.72898 5.0869 5.12267 3.69274 6.83254 2.82636C8.54241 1.95999 10.48 1.66625 12.3655 1.98755" stroke="white" stroke-width="1.75" stroke-linecap="round" stroke-linejoin="round"/>
<path d="M16.1265 4.14563L17.6309 5.66882L20.6396 2.62244" stroke="white" stroke-width="1.75" stroke-linecap="round" stroke-linejoin="round"/>
</svg>
