<svg width="18" height="18" viewBox="0 0 18 18" fill="none" xmlns="http://www.w3.org/2000/svg">
<path d="M8.36719 11.5312L15.9609 3.9375" stroke="#222211" stroke-width="1.25" stroke-linecap="round" stroke-linejoin="round"/>
<path d="M3.33949 11.5312C3.31631 11.321 3.3047 11.1098 3.30469 10.8984C3.30545 9.9945 3.52115 9.10379 3.93398 8.29972C4.34681 7.49566 4.94493 6.80129 5.67899 6.27393C6.41305 5.74657 7.26199 5.40133 8.15576 5.26671C9.04953 5.13208 9.96251 5.21194 10.8193 5.49967" stroke="#222211" stroke-width="1.25" stroke-linecap="round" stroke-linejoin="round"/>
<path d="M16.3264 7.15203C16.8339 8.1476 17.1339 9.2358 17.2084 10.3507C17.2829 11.4657 17.1303 12.5841 16.7599 13.6384C16.7167 13.7626 16.6357 13.8703 16.5284 13.9465C16.4211 14.0226 16.2927 14.0634 16.1611 14.0631H1.8382C1.70637 14.0626 1.57797 14.0211 1.47071 13.9444C1.36345 13.8678 1.28263 13.7597 1.2394 13.6352C0.923016 12.7356 0.765368 11.7878 0.773492 10.8342C0.808297 6.31039 4.54901 2.63137 9.07916 2.67172C10.356 2.68196 11.6128 2.9902 12.7495 3.57189" stroke="#222211" stroke-width="1.25" stroke-linecap="round" stroke-linejoin="round"/>
</svg>
