<svg width="20" height="20" viewBox="0 0 20 20" fill="none" xmlns="http://www.w3.org/2000/svg">
  <g clip-path="url(#clip0_226_299)">
    <path
      d="M18.75 3.125H13.75V2.5C13.75 2.00272 13.5525 1.52581 13.2008 1.17417C12.8492 0.822544 12.3723 0.625 11.875 0.625H8.125C7.62772 0.625 7.15081 0.822544 6.79917 1.17417C6.44754 1.52581 6.25 2.00272 6.25 2.5V3.125H1.25C1.08424 3.125 0.925268 3.19085 0.808058 3.30806C0.690848 3.42527 0.625 3.58424 0.625 3.75C0.625 3.91576 0.690848 4.07473 0.808058 4.19194C0.925268 4.30915 1.08424 4.375 1.25 4.375H3.125V16.25C3.12599 17.0785 3.45555 17.8728 4.04139 18.4586C4.62722 19.0444 5.4215 19.374 6.25 19.375H13.75C14.5785 19.374 15.3728 19.0444 15.9586 18.4586C16.5444 17.8728 16.874 17.0785 16.875 16.25V4.375H18.75C18.9158 4.375 19.0747 4.30915 19.1919 4.19194C19.3092 4.07473 19.375 3.91576 19.375 3.75C19.375 3.58424 19.3092 3.42527 19.1919 3.30806C19.0747 3.19085 18.9158 3.125 18.75 3.125ZM7.5 2.5C7.5 2.33424 7.56585 2.17527 7.68306 2.05806C7.80027 1.94085 7.95924 1.875 8.125 1.875H11.875C12.0408 1.875 12.1997 1.94085 12.3169 2.05806C12.4342 2.17527 12.5 2.33424 12.5 2.5V3.125H7.5V2.5ZM15.625 16.25C15.625 16.7473 15.4275 17.2242 15.0758 17.5758C14.7242 17.9275 14.2473 18.125 13.75 18.125H6.25C5.75272 18.125 5.27581 17.9275 4.92417 17.5758C4.57254 17.2242 4.375 16.7473 4.375 16.25V4.375H15.625V16.25Z"
      fill="#f6f6ee" stroke="#f6f6ee" stroke-width="0.5" />
  </g>
  <defs>
    <clipPath id="clip0_226_299">
      <rect width="20" height="20" fill="#f6f6ee" />
    </clipPath>
  </defs>
</svg>