<svg width="20" height="20" viewBox="0 0 20 20" fill="none" xmlns="http://www.w3.org/2000/svg">
  <g clip-path="url(#clip0_226_296)">
    <path
      d="M2.91667 20H15.4167C16.1914 19.9978 16.9336 19.6883 17.4805 19.1395C18.0273 18.5906 18.334 17.8473 18.3333 17.0725V10.7917C18.3333 10.5707 18.2455 10.3587 18.0893 10.2024C17.933 10.0462 17.721 9.95835 17.5 9.95835C17.279 9.95835 17.067 10.0462 16.9107 10.2024C16.7545 10.3587 16.6667 10.5707 16.6667 10.7917V17.0725C16.6678 17.4054 16.5368 17.7251 16.3024 17.9615C16.0681 18.1978 15.7495 18.3316 15.4167 18.3334H2.91667C2.58381 18.3316 2.26525 18.1978 2.0309 17.9615C1.79655 17.7251 1.66556 17.4054 1.66667 17.0725V4.59419C1.66556 4.26133 1.79655 3.94163 2.0309 3.70525C2.26525 3.46887 2.58381 3.33512 2.91667 3.33335H9.16667C9.38768 3.33335 9.59964 3.24556 9.75592 3.08928C9.9122 2.933 10 2.72103 10 2.50002C10 2.27901 9.9122 2.06704 9.75592 1.91076C9.59964 1.75448 9.38768 1.66669 9.16667 1.66669H2.91667C2.14192 1.66889 1.3997 1.97838 0.852882 2.52723C0.306068 3.07607 -0.000664243 3.81944 1.08009e-06 4.59419V17.0725C-0.000664243 17.8473 0.306068 18.5906 0.852882 19.1395C1.3997 19.6883 2.14192 19.9978 2.91667 20Z"
      fill="#f6f6ee" />
    <path
      d="M7.87924 8.78666L7.22174 11.7983C7.19198 11.9349 7.19706 12.0768 7.23653 12.211C7.27599 12.3451 7.34857 12.4671 7.44757 12.5658C7.54793 12.6621 7.67002 12.7327 7.80348 12.7717C7.93694 12.8107 8.07784 12.817 8.21424 12.79L11.2192 12.1308C11.3753 12.0966 11.5182 12.0182 11.6309 11.905L19.2259 4.31C19.4581 4.07785 19.6423 3.80223 19.7679 3.49889C19.8936 3.19555 19.9583 2.87042 19.9583 2.54208C19.9583 2.21374 19.8936 1.88862 19.7679 1.58528C19.6423 1.28193 19.4581 1.00632 19.2259 0.774165C18.7499 0.319278 18.1168 0.0654297 17.4584 0.0654297C16.8 0.0654297 16.1669 0.319278 15.6909 0.774165L8.10757 8.37666C7.99375 8.48864 7.9145 8.63095 7.87924 8.78666ZM16.8692 1.95333C17.0278 1.80145 17.2389 1.71666 17.4584 1.71666C17.678 1.71666 17.889 1.80145 18.0476 1.95333C18.2017 2.11052 18.2881 2.32191 18.2881 2.54208C18.2881 2.76225 18.2017 2.97364 18.0476 3.13083L17.4584 3.72L16.2801 2.54166L16.8692 1.95333ZM9.45257 9.38166L15.0976 3.7225L16.2642 4.895L10.6167 10.5558L9.1209 10.8842L9.45257 9.38166Z"
      fill="#f6f6ee" />
  </g>
  <defs>
    <clipPath id="clip0_226_296">
      <rect width="20" height="20" fill="white" />
    </clipPath>
  </defs>
</svg>