<svg width="21" height="21" viewBox="0 0 21 21" fill="none" xmlns="http://www.w3.org/2000/svg">
  <path
    d="M1.93718 13.5236C1.41934 13.5236 0.999756 13.9432 0.999756 14.4611C0.999756 14.979 1.41934 15.3985 1.93718 15.3985H4.16806L3.21518 19.21C3.08945 19.7122 3.39493 20.2212 3.89721 20.3467C3.97351 20.3659 4.05011 20.375 4.12518 20.375C4.54537 20.375 4.92741 20.0906 5.03392 19.6646L6.10043 15.3985H12.9175L11.9646 19.21C11.8389 19.7122 12.1444 20.2212 12.6467 20.3467C12.723 20.3659 12.7996 20.375 12.8746 20.375C13.2948 20.375 13.6769 20.0906 13.7834 19.6646L14.8499 15.3985H19.4361C19.954 15.3985 20.3735 14.979 20.3735 14.4611C20.3735 13.9432 19.954 13.5236 19.4361 13.5236H15.3186L16.7365 7.85199H19.4361C19.954 7.85199 20.3735 7.43241 20.3735 6.91457C20.3735 6.39668 19.954 5.9771 19.4361 5.9771H17.2052L18.1581 2.16568C18.2838 1.6634 17.9784 1.15441 17.4761 1.02898C16.9714 0.901109 16.4648 1.20873 16.3394 1.71101L15.2729 5.9771H8.45581L9.40865 2.16568C9.53438 1.6634 9.2289 1.1544 8.72662 1.02897C8.22159 0.901103 7.71534 1.20872 7.58991 1.711L6.52341 5.97711H1.93718C1.41934 5.97711 0.999756 6.39669 0.999756 6.91457C0.999756 7.43242 1.41934 7.852 1.93718 7.852H6.05469L4.63676 13.5237L1.93718 13.5236ZM7.98706 7.85199H14.8041L13.3862 13.5236H6.56918L7.98706 7.85199Z"
    fill="black" stroke="black" stroke-width="0.25" />
</svg>