<svg width="40" height="40" viewBox="0 0 40 40" fill="none" xmlns="http://www.w3.org/2000/svg">
<circle cx="20" cy="20" r="20" fill="#B5C10B"/>
<path d="M7.32983 20C7.32983 20.3341 7.44221 20.6544 7.64225 20.8906C7.84229 21.1268 8.1136 21.2595 8.3965 21.2595H29.2882L24.7101 26.6655C24.5158 26.903 24.4083 27.2212 24.4107 27.5514C24.4131 27.8817 24.5253 28.1976 24.7231 28.4311C24.9209 28.6646 25.1884 28.7971 25.4681 28.8C25.7477 28.8028 26.0172 28.6759 26.2184 28.4464L32.6184 20.8892C32.7171 20.7734 32.7954 20.6356 32.8489 20.4839C32.9023 20.3321 32.9298 20.1694 32.9298 20.0051V20C32.9298 19.8363 32.9021 19.6725 32.8466 19.5189C32.7935 19.3662 32.7152 19.2275 32.6162 19.1108L26.2162 11.5536C26.0151 11.3241 25.7456 11.1972 25.4659 11.2001C25.1863 11.2029 24.9187 11.3354 24.721 11.5689C24.5232 11.8024 24.411 12.1184 24.4086 12.4486C24.4062 12.7788 24.5137 13.097 24.708 13.3346L29.2882 18.7405H8.3965C8.1136 18.7405 7.84229 18.8732 7.64225 19.1094C7.44221 19.3456 7.32983 19.666 7.32983 20Z" fill="#F9FAEB"/>
</svg>
