<svg width="18" height="18" viewBox="0 0 18 18" fill="none" xmlns="http://www.w3.org/2000/svg">
<path d="M0.975098 3.5248V14.3248C0.975098 14.6828 1.11733 15.0262 1.3705 15.2794C1.62368 15.5326 1.96706 15.6748 2.3251 15.6748H15.8251C16.0041 15.6748 16.1758 15.6037 16.3024 15.4771C16.429 15.3505 16.5001 15.1788 16.5001 14.9998V5.5498C16.5001 5.37078 16.429 5.19909 16.3024 5.07251C16.1758 4.94592 16.0041 4.8748 15.8251 4.8748H2.3251C1.96706 4.8748 1.62368 4.73257 1.3705 4.4794C1.11733 4.22622 0.975098 3.88285 0.975098 3.5248ZM0.975098 3.5248C0.975098 3.16676 1.11733 2.82338 1.3705 2.57021C1.62368 2.31704 1.96706 2.1748 2.3251 2.1748H13.8001" stroke="black" stroke-width="1.25" stroke-linecap="round" stroke-linejoin="round"/>
<path d="M12.7874 10.9498C13.3466 10.9498 13.7999 10.4965 13.7999 9.9373C13.7999 9.37812 13.3466 8.9248 12.7874 8.9248C12.2282 8.9248 11.7749 9.37812 11.7749 9.9373C11.7749 10.4965 12.2282 10.9498 12.7874 10.9498Z" fill="black"/>
</svg>
