<svg width="40" height="40" viewBox="0 0 40 40" fill="none" xmlns="http://www.w3.org/2000/svg">
<ellipse cx="20" cy="20" rx="20" ry="20" transform="matrix(-1 0 0 1 40 0)" fill="#B5C10B"/>
<path d="M32.6701 20C32.6701 20.3341 32.5577 20.6544 32.3577 20.8906C32.1576 21.1268 31.8863 21.2595 31.6034 21.2595H10.7117L15.2898 26.6655C15.4841 26.903 15.5916 27.2212 15.5892 27.5514C15.5868 27.8817 15.4746 28.1976 15.2768 28.4311C15.079 28.6646 14.8115 28.7971 14.5318 28.8C14.2522 28.8028 13.9827 28.6759 13.7815 28.4464L7.38154 20.8892C7.28284 20.7734 7.20451 20.6356 7.15106 20.4839C7.0976 20.3321 7.07008 20.1694 7.07007 20.0051V20C7.07007 19.8363 7.09781 19.6725 7.15327 19.5189C7.20644 19.3662 7.28475 19.2275 7.38367 19.1108L13.7837 11.5536C13.9848 11.3241 14.2543 11.1972 14.534 11.2001C14.8136 11.2029 15.0812 11.3354 15.2789 11.5689C15.4767 11.8024 15.5889 12.1184 15.5913 12.4486C15.5938 12.7788 15.4862 13.097 15.2919 13.3346L10.7117 18.7405H31.6034C31.8863 18.7405 32.1576 18.8732 32.3577 19.1094C32.5577 19.3456 32.6701 19.666 32.6701 20Z" fill="#F9FAEB"/>
</svg>
