<svg width="21" height="22" viewBox="0 0 21 22" fill="none" xmlns="http://www.w3.org/2000/svg">
<path d="M16.9592 21.6267C12.6445 21.6267 8.32815 21.6404 4.01263 21.6267C1.92555 21.6073 0.00646157 19.7959 0 17.5903V4.67007C0.0298847 4.04902 0.842427 3.63148 1.33674 4.05951C1.47243 4.17743 1.56612 4.34056 1.60085 4.51743C1.61378 4.58446 1.61216 4.60142 1.61539 4.67007C1.61539 8.98676 1.57501 13.3035 1.61539 17.6193C1.63478 18.8687 2.71628 19.9994 4.02233 20.0115C7.25795 20.022 10.4928 20.0115 13.7284 20.0115C13.7131 19.9921 13.6985 19.9719 13.684 19.9509C13.1889 19.2604 12.9231 18.4286 12.9207 17.5903V2.24723H0.807696C0.807696 2.24723 0.029077 2.06956 0.000807637 1.47838C-0.0193848 1.0455 0.358617 0.65381 0.807696 0.632812H13.7284C14.1621 0.652195 14.5151 0.996238 14.5361 1.43962C14.5361 6.83286 14.486 12.2269 14.5361 17.6193C14.5555 18.855 15.6192 19.9792 16.9099 20.0115C16.9737 20.0042 16.9543 20.0155 17.0997 20.0074C18.3129 19.9348 19.3774 18.8542 19.3815 17.5878V10.3226H16.9584C16.9584 10.3226 16.5675 10.2797 16.3663 10.0641C15.9811 9.6482 16.2064 8.81151 16.838 8.71621C16.8913 8.70813 16.9051 8.70894 16.9584 8.70733H20.1892C20.2085 8.70813 20.2287 8.70894 20.2489 8.70975C20.4339 8.72994 20.463 8.75013 20.5389 8.78728C20.8111 8.91811 20.9847 9.20966 20.9961 9.51494C20.9961 12.2148 21.0049 14.9154 20.9961 17.6153C20.9767 19.7183 19.1335 21.6194 16.9592 21.6267ZM8.88304 16.7818H5.65306C5.02467 16.7697 4.60225 15.9322 5.05456 15.4323C5.20479 15.2659 5.42448 15.1715 5.65306 15.1666H8.88304C8.89354 15.1674 8.90485 15.1674 8.91535 15.1674C9.62046 15.2094 9.97827 16.3167 9.25377 16.6914C9.13988 16.7503 9.01388 16.7794 8.88304 16.7818ZM10.4984 13.5522H4.03767C3.85271 13.5465 3.79132 13.5223 3.68713 13.4722C3.19201 13.2332 3.08701 12.4288 3.57082 12.0864C3.66936 12.0161 3.78325 11.9685 3.90279 11.9483C3.94721 11.941 3.99244 11.9386 4.03767 11.937H10.4984C10.513 11.9378 10.5283 11.9378 10.5437 11.9386C11.1381 11.9887 11.5476 12.7817 11.1002 13.2825C10.9483 13.4521 10.794 13.5441 10.4984 13.5522ZM10.4984 10.3226H4.03767C3.41978 10.3048 2.97797 9.48829 3.43594 8.97626C3.58698 8.80666 3.74205 8.7154 4.03767 8.70733H10.4984C10.513 8.70733 10.5283 8.70813 10.5437 8.70813C11.1405 8.75901 11.5347 9.56663 11.1002 10.0528C10.9483 10.2224 10.794 10.3137 10.4984 10.3226ZM10.4984 7.0921H4.03767C3.4214 7.07514 2.98121 6.25461 3.43594 5.74662C3.58698 5.57702 3.74205 5.48576 4.03767 5.47768H10.4984C10.513 5.47768 10.5283 5.47849 10.5437 5.47849C10.7286 5.49383 10.7876 5.5221 10.8885 5.57783C11.3538 5.83545 11.4394 6.60753 10.9653 6.9435C10.8667 7.01295 10.7529 7.0606 10.6333 7.08079C10.5889 7.08806 10.5437 7.09129 10.4984 7.0921Z" fill="white"/>
</svg>
