<svg width="21" height="16" viewBox="0 0 21 16" fill="none" xmlns="http://www.w3.org/2000/svg">
<path d="M7.35 5.56836C7.07152 5.56836 6.80445 5.67948 6.60754 5.87727C6.41062 6.07506 6.3 6.34333 6.3 6.62305V8.73242C6.3 9.01214 6.41062 9.28041 6.60754 9.4782C6.80445 9.67599 7.07152 9.78711 7.35 9.78711C7.62848 9.78711 7.89555 9.67599 8.09246 9.4782C8.28937 9.28041 8.4 9.01214 8.4 8.73242V6.62305C8.4 6.34333 8.28937 6.07506 8.09246 5.87727C7.89555 5.67948 7.62848 5.56836 7.35 5.56836ZM19.95 6.62305C20.2285 6.62305 20.4955 6.51193 20.6925 6.31414C20.8894 6.11634 21 5.84808 21 5.56836V1.34961C21 1.06989 20.8894 0.801625 20.6925 0.603833C20.4955 0.406041 20.2285 0.294922 19.95 0.294922H1.05C0.771523 0.294922 0.504451 0.406041 0.307538 0.603833C0.110625 0.801625 0 1.06989 0 1.34961V5.56836C0 5.84808 0.110625 6.11634 0.307538 6.31414C0.504451 6.51193 0.771523 6.62305 1.05 6.62305C1.32848 6.62305 1.59555 6.73417 1.79246 6.93196C1.98938 7.12975 2.1 7.39801 2.1 7.67773C2.1 7.95745 1.98938 8.22572 1.79246 8.42351C1.59555 8.6213 1.32848 8.73242 1.05 8.73242C0.771523 8.73242 0.504451 8.84354 0.307538 9.04133C0.110625 9.23913 0 9.50739 0 9.78711V14.0059C0 14.2856 0.110625 14.5538 0.307538 14.7516C0.504451 14.9494 0.771523 15.0605 1.05 15.0605H19.95C20.2285 15.0605 20.4955 14.9494 20.6925 14.7516C20.8894 14.5538 21 14.2856 21 14.0059V9.78711C21 9.50739 20.8894 9.23913 20.6925 9.04133C20.4955 8.84354 20.2285 8.73242 19.95 8.73242C19.6715 8.73242 19.4044 8.6213 19.2075 8.42351C19.0106 8.22572 18.9 7.95745 18.9 7.67773C18.9 7.39801 19.0106 7.12975 19.2075 6.93196C19.4044 6.73417 19.6715 6.62305 19.95 6.62305ZM18.9 4.70352C18.2919 4.92522 17.7665 5.32961 17.3952 5.86174C17.0239 6.39386 16.8247 7.02792 16.8247 7.67773C16.8247 8.32755 17.0239 8.9616 17.3952 9.49373C17.7665 10.0259 18.2919 10.4303 18.9 10.652V12.9512H8.4C8.4 12.6715 8.28937 12.4032 8.09246 12.2054C7.89555 12.0076 7.62848 11.8965 7.35 11.8965C7.07152 11.8965 6.80445 12.0076 6.60754 12.2054C6.41062 12.4032 6.3 12.6715 6.3 12.9512H2.1V10.652C2.70811 10.4303 3.23352 10.0259 3.60482 9.49373C3.97612 8.9616 4.1753 8.32755 4.1753 7.67773C4.1753 7.02792 3.97612 6.39386 3.60482 5.86174C3.23352 5.32961 2.70811 4.92522 2.1 4.70352V2.4043H6.3C6.3 2.68402 6.41062 2.95228 6.60754 3.15007C6.80445 3.34787 7.07152 3.45898 7.35 3.45898C7.62848 3.45898 7.89555 3.34787 8.09246 3.15007C8.28937 2.95228 8.4 2.68402 8.4 2.4043H18.9V4.70352Z" fill="white"/>
</svg>
