<svg width="38" height="38" viewBox="0 0 38 38" fill="none" xmlns="http://www.w3.org/2000/svg">
<g clip-path="url(#clip0_283_10)">
<path d="M19 33.25C26.8701 33.25 33.25 26.8701 33.25 19C33.25 11.1299 26.8701 4.75 19 4.75C11.1299 4.75 4.75 11.1299 4.75 19C4.75 26.8701 11.1299 33.25 19 33.25Z" stroke="black" stroke-width="2" stroke-linecap="round" stroke-linejoin="round"/>
<path d="M15.7175 14.0509C15.9109 13.5932 16.1979 13.1811 16.5601 12.8409C16.9223 12.5007 17.3516 12.2401 17.8205 12.0757C18.2894 11.9113 18.7875 11.8468 19.2828 11.8863C19.7781 11.9258 20.2597 12.0685 20.6966 12.3052C21.1335 12.5418 21.516 12.8673 21.8197 13.2606C22.1234 13.6539 22.3414 14.1063 22.4598 14.5889C22.5782 15.0715 22.5944 15.5735 22.5073 16.0626C22.4202 16.5518 22.2318 17.0174 21.9541 17.4294L15.4375 26.1251V26.1243H22.5625" stroke="black" stroke-width="2" stroke-linecap="round" stroke-linejoin="round"/>
</g>
<defs>
<clipPath id="clip0_283_10">
<rect width="38" height="38" fill="white"/>
</clipPath>
</defs>
</svg>
