<svg width="20" height="20" viewBox="0 0 20 20" fill="none" xmlns="http://www.w3.org/2000/svg">
<path d="M5.52817 0.998444C4.32761 0.999687 3.17657 1.47716 2.32764 2.32609C1.47872 3.17502 1.00124 4.32605 1 5.52662V14.4703C1.00083 15.6713 1.47807 16.8228 2.327 17.6724C3.17592 18.5219 4.32719 18.9999 5.52817 19.0016H14.4718C15.6726 18.9991 16.8233 18.5208 17.6721 17.6715C18.5208 16.8221 18.9983 15.671 19 14.4703V5.52662C18.9988 4.32605 18.5213 3.17502 17.6724 2.32609C16.8234 1.47716 15.6724 0.999687 14.4718 0.998444H5.52817ZM5.52817 1.78105H14.4718C15.4652 1.78188 16.4178 2.17667 17.1205 2.87883C17.8233 3.58099 18.2189 4.5332 18.2205 5.52662V14.4703C18.2196 14.9828 18.1129 15.4897 17.9072 15.9591C17.7014 16.4285 17.401 16.8504 17.0247 17.1984C16.0652 14.1291 13.1868 11.9456 9.92644 11.9456C8.35473 11.9432 6.82302 12.4409 5.55287 13.3667C4.28273 14.2924 3.33999 15.5982 2.86104 17.0951C2.17005 16.3963 1.78254 15.4531 1.78261 14.4703V5.52662C1.78344 4.53349 2.17832 3.58127 2.88058 2.87902C3.58283 2.17677 4.53504 1.78188 5.52817 1.78105ZM9.97496 4.17114C9.04505 4.17197 8.15342 4.54152 7.49559 5.19877C6.83775 5.85602 6.4674 6.74732 6.46574 7.67723C6.46698 8.60769 6.83705 9.49971 7.49484 10.1578C8.15263 10.8159 9.04449 11.1864 9.97496 11.188C10.8871 11.1608 11.7528 10.7793 12.3883 10.1244C13.0239 9.46958 13.3794 8.59291 13.3794 7.68036C13.3794 6.7678 13.0239 5.89114 12.3883 5.2363C11.7528 4.58146 10.8871 4.19839 9.97496 4.17114ZM9.97496 4.95375C10.6866 4.9708 11.3633 5.26547 11.8606 5.77481C12.3579 6.28414 12.6362 6.96774 12.6362 7.67957C12.6362 8.3914 12.3579 9.07501 11.8606 9.58434C11.3633 10.0937 10.6866 10.3883 9.97496 10.4054C8.47235 10.4054 7.24835 9.1814 7.24835 7.67879C7.24835 6.17618 8.47235 4.95375 9.97496 4.95375ZM9.928 12.7282C12.9379 12.7282 15.5894 14.8005 16.361 17.6868C15.8038 18.0155 15.1652 18.219 14.475 18.219H5.52817V18.2158C4.7847 18.2158 4.09287 17.992 3.50904 17.6164C3.8934 16.2099 4.73014 14.9691 5.89002 14.0856C7.0499 13.2021 8.46996 12.7251 9.928 12.7282Z" fill="#222211" stroke="#222211" stroke-width="0.35"/>
</svg>
