<svg width="41" height="40" viewBox="0 0 41 40" fill="none" xmlns="http://www.w3.org/2000/svg">
<path d="M8.78271 32.0001L10.5484 25.5497C9.45701 23.6575 8.88407 21.5108 8.88738 19.3264C8.89052 12.4647 14.4743 6.88086 21.335 6.88086C24.6644 6.88191 27.7896 8.17869 30.1404 10.5315C31.2993 11.6859 32.2179 13.0585 32.8431 14.5701C33.4683 16.0817 33.7876 17.7022 33.7827 19.3379C33.7795 26.2012 28.1957 31.785 21.335 31.785C19.2552 31.7848 17.2085 31.2638 15.3818 30.2695L8.78271 32.0001ZM15.6874 28.0156C17.4415 29.057 19.1161 29.6808 21.3308 29.6818C27.0329 29.6818 31.6779 25.041 31.681 19.3358C31.6831 13.6191 27.0601 8.9846 21.3392 8.9825C15.6329 8.9825 10.9911 13.6233 10.989 19.3275C10.988 21.6562 11.6704 23.3999 12.8164 25.2242L11.7709 29.0428L15.6874 28.0156ZM27.6054 22.2973C27.528 22.1675 27.3207 22.09 27.0088 21.9341C26.698 21.7781 25.1688 21.0256 24.8831 20.922C24.5984 20.8184 24.3912 20.7661 24.1829 21.0779C23.9757 21.3888 23.3791 22.09 23.198 22.2973C23.017 22.5045 22.8348 22.5307 22.524 22.3747C22.2131 22.2188 21.2105 21.8912 20.0225 20.8309C19.0984 20.0062 18.4735 18.9878 18.2924 18.6759C18.1114 18.3651 18.2736 18.1966 18.4285 18.0417C18.5688 17.9025 18.7394 17.6785 18.8953 17.4964C19.0534 17.3163 19.1046 17.1866 19.2093 16.9783C19.3129 16.771 19.2616 16.5889 19.1831 16.433C19.1046 16.2781 18.4829 14.7468 18.2244 14.1241C17.9711 13.5181 17.7147 13.5997 17.5242 13.5903L16.9276 13.5799C16.7204 13.5799 16.3834 13.6573 16.0987 13.9692C15.814 14.2811 15.0102 15.0326 15.0102 16.5638C15.0102 18.095 16.1249 19.5739 16.2798 19.7812C16.4357 19.9884 18.4725 23.1304 21.5925 24.4774C22.3346 24.7977 22.9144 24.9892 23.3655 25.1326C24.1107 25.3692 24.7889 25.3357 25.3248 25.2561C25.9224 25.1672 27.1648 24.5036 27.4243 23.7772C27.6839 23.0498 27.6839 22.4271 27.6054 22.2973Z" fill="#222211"/>
<circle cx="20.7793" cy="20" r="19.25" stroke="#222211" stroke-width="1.5"/>
</svg>
