<svg width="41" height="40" viewBox="0 0 41 40" fill="none" xmlns="http://www.w3.org/2000/svg">
<path d="M18.6978 14.6836V25.2202L26.8937 19.9519L18.6978 14.6836Z" stroke="#222211" stroke-width="1.5" stroke-linecap="round" stroke-linejoin="round"/>
<path d="M11.2396 10.7844L13.4291 10.5035C16.1479 10.1653 18.8852 9.99713 21.625 10C24.3648 9.99713 27.1021 10.1653 29.8209 10.5035L32.0456 10.7844C32.9002 10.8906 33.686 11.307 34.2537 11.9545C34.8214 12.602 35.1315 13.4355 35.1249 14.2966V25.6527C35.1315 26.5138 34.8214 27.3473 34.2537 27.9948C33.686 28.6423 32.9002 29.0587 32.0456 29.1649L29.8209 29.4459C27.1021 29.7841 24.3648 29.9522 21.625 29.9493C18.8852 29.9522 16.1479 29.7841 13.4291 29.4459L11.2044 29.1649C10.3498 29.0587 9.56398 28.6423 8.99627 27.9948C8.42856 27.3473 8.11853 26.5138 8.1251 25.6527V14.2732C8.1253 13.4108 8.44283 12.5786 9.0172 11.9352C9.59156 11.2918 10.3826 10.8822 11.2396 10.7844Z" stroke="#222211" stroke-width="1.5" stroke-linecap="round" stroke-linejoin="round"/>
<circle cx="20.875" cy="20" r="19.25" stroke="#222211" stroke-width="1.5"/>
</svg>
